<mxfile host="app.diagrams.net" agent="Mozilla/5.0 (Windows NT 10.0; Win64; x64) AppleWebKit/537.36 (KHTML, like Gecko) Chrome/131.0.0.0 Safari/537.36 Edg/131.0.0.0" version="26.0.5">
  <diagram id="C5RBs43oDa-KdzZeNtuy" name="Page-1">
    <mxGraphModel dx="796" dy="637" grid="1" gridSize="10" guides="1" tooltips="1" connect="1" arrows="1" fold="1" page="1" pageScale="1" pageWidth="827" pageHeight="1169" math="0" shadow="0">
      <root>
        <mxCell id="WIyWlLk6GJQsqaUBKTNV-0" />
        <mxCell id="WIyWlLk6GJQsqaUBKTNV-1" parent="WIyWlLk6GJQsqaUBKTNV-0" />
        <mxCell id="1TUTb3aLRJBB_9T-nASP-1" value="" style="edgeStyle=orthogonalEdgeStyle;rounded=0;orthogonalLoop=1;jettySize=auto;html=1;" edge="1" parent="WIyWlLk6GJQsqaUBKTNV-1" source="WIyWlLk6GJQsqaUBKTNV-3" target="1TUTb3aLRJBB_9T-nASP-0">
          <mxGeometry relative="1" as="geometry" />
        </mxCell>
        <mxCell id="WIyWlLk6GJQsqaUBKTNV-3" value="开始" style="rounded=1;whiteSpace=wrap;html=1;fontSize=12;glass=0;strokeWidth=1;shadow=0;" parent="WIyWlLk6GJQsqaUBKTNV-1" vertex="1">
          <mxGeometry x="320" y="20" width="120" height="40" as="geometry" />
        </mxCell>
        <mxCell id="1TUTb3aLRJBB_9T-nASP-16" value="" style="edgeStyle=orthogonalEdgeStyle;rounded=0;orthogonalLoop=1;jettySize=auto;html=1;" edge="1" parent="WIyWlLk6GJQsqaUBKTNV-1" source="1TUTb3aLRJBB_9T-nASP-0" target="1TUTb3aLRJBB_9T-nASP-15">
          <mxGeometry relative="1" as="geometry" />
        </mxCell>
        <mxCell id="1TUTb3aLRJBB_9T-nASP-0" value="遍历找到对应结点" style="rounded=0;whiteSpace=wrap;html=1;" vertex="1" parent="WIyWlLk6GJQsqaUBKTNV-1">
          <mxGeometry x="320" y="80" width="120" height="60" as="geometry" />
        </mxCell>
        <mxCell id="1TUTb3aLRJBB_9T-nASP-6" style="edgeStyle=orthogonalEdgeStyle;rounded=0;orthogonalLoop=1;jettySize=auto;html=1;entryX=0;entryY=0.5;entryDx=0;entryDy=0;exitX=0;exitY=0.5;exitDx=0;exitDy=0;" edge="1" parent="WIyWlLk6GJQsqaUBKTNV-1" source="1TUTb3aLRJBB_9T-nASP-2" target="1TUTb3aLRJBB_9T-nASP-4">
          <mxGeometry relative="1" as="geometry">
            <Array as="points">
              <mxPoint x="110" y="290" />
              <mxPoint x="110" y="770" />
            </Array>
          </mxGeometry>
        </mxCell>
        <mxCell id="1TUTb3aLRJBB_9T-nASP-9" value="" style="edgeStyle=orthogonalEdgeStyle;rounded=0;orthogonalLoop=1;jettySize=auto;html=1;" edge="1" parent="WIyWlLk6GJQsqaUBKTNV-1" source="1TUTb3aLRJBB_9T-nASP-2" target="1TUTb3aLRJBB_9T-nASP-8">
          <mxGeometry relative="1" as="geometry" />
        </mxCell>
        <mxCell id="1TUTb3aLRJBB_9T-nASP-2" value="是否在叶子节点中找到了对应的key" style="rhombus;whiteSpace=wrap;html=1;" vertex="1" parent="WIyWlLk6GJQsqaUBKTNV-1">
          <mxGeometry x="315" y="250" width="130" height="80" as="geometry" />
        </mxCell>
        <mxCell id="1TUTb3aLRJBB_9T-nASP-4" value="结束" style="rounded=1;whiteSpace=wrap;html=1;fontSize=12;glass=0;strokeWidth=1;shadow=0;" vertex="1" parent="WIyWlLk6GJQsqaUBKTNV-1">
          <mxGeometry x="315" y="750" width="120" height="40" as="geometry" />
        </mxCell>
        <mxCell id="1TUTb3aLRJBB_9T-nASP-7" value="否" style="text;html=1;align=center;verticalAlign=middle;resizable=0;points=[];autosize=1;strokeColor=none;fillColor=none;" vertex="1" parent="WIyWlLk6GJQsqaUBKTNV-1">
          <mxGeometry x="210" y="258" width="40" height="30" as="geometry" />
        </mxCell>
        <mxCell id="1TUTb3aLRJBB_9T-nASP-12" value="" style="edgeStyle=orthogonalEdgeStyle;rounded=0;orthogonalLoop=1;jettySize=auto;html=1;" edge="1" parent="WIyWlLk6GJQsqaUBKTNV-1" source="1TUTb3aLRJBB_9T-nASP-8" target="1TUTb3aLRJBB_9T-nASP-11">
          <mxGeometry relative="1" as="geometry" />
        </mxCell>
        <mxCell id="1TUTb3aLRJBB_9T-nASP-8" value="删除对应的key" style="whiteSpace=wrap;html=1;" vertex="1" parent="WIyWlLk6GJQsqaUBKTNV-1">
          <mxGeometry x="500" y="260" width="120" height="60" as="geometry" />
        </mxCell>
        <mxCell id="1TUTb3aLRJBB_9T-nASP-10" value="是" style="text;html=1;align=center;verticalAlign=middle;resizable=0;points=[];autosize=1;strokeColor=none;fillColor=none;" vertex="1" parent="WIyWlLk6GJQsqaUBKTNV-1">
          <mxGeometry x="450" y="268" width="40" height="30" as="geometry" />
        </mxCell>
        <mxCell id="1TUTb3aLRJBB_9T-nASP-13" style="edgeStyle=orthogonalEdgeStyle;rounded=0;orthogonalLoop=1;jettySize=auto;html=1;entryX=1;entryY=0.5;entryDx=0;entryDy=0;" edge="1" parent="WIyWlLk6GJQsqaUBKTNV-1" source="1TUTb3aLRJBB_9T-nASP-11" target="1TUTb3aLRJBB_9T-nASP-4">
          <mxGeometry relative="1" as="geometry">
            <Array as="points">
              <mxPoint x="760" y="400" />
              <mxPoint x="760" y="770" />
            </Array>
          </mxGeometry>
        </mxCell>
        <mxCell id="1TUTb3aLRJBB_9T-nASP-11" value="是否让key数量&amp;lt;&lt;div&gt;最小key&lt;/div&gt;" style="rhombus;whiteSpace=wrap;html=1;" vertex="1" parent="WIyWlLk6GJQsqaUBKTNV-1">
          <mxGeometry x="495" y="360" width="130" height="80" as="geometry" />
        </mxCell>
        <mxCell id="1TUTb3aLRJBB_9T-nASP-14" value="否" style="text;html=1;align=center;verticalAlign=middle;resizable=0;points=[];autosize=1;strokeColor=none;fillColor=none;" vertex="1" parent="WIyWlLk6GJQsqaUBKTNV-1">
          <mxGeometry x="640" y="368" width="40" height="30" as="geometry" />
        </mxCell>
        <mxCell id="1TUTb3aLRJBB_9T-nASP-17" value="" style="edgeStyle=orthogonalEdgeStyle;rounded=0;orthogonalLoop=1;jettySize=auto;html=1;" edge="1" parent="WIyWlLk6GJQsqaUBKTNV-1" source="1TUTb3aLRJBB_9T-nASP-15" target="1TUTb3aLRJBB_9T-nASP-2">
          <mxGeometry relative="1" as="geometry" />
        </mxCell>
        <mxCell id="1TUTb3aLRJBB_9T-nASP-24" value="" style="edgeStyle=orthogonalEdgeStyle;rounded=0;orthogonalLoop=1;jettySize=auto;html=1;" edge="1" parent="WIyWlLk6GJQsqaUBKTNV-1" source="1TUTb3aLRJBB_9T-nASP-15" target="1TUTb3aLRJBB_9T-nASP-23">
          <mxGeometry relative="1" as="geometry" />
        </mxCell>
        <mxCell id="1TUTb3aLRJBB_9T-nASP-15" value="是否是叶子节点" style="rhombus;whiteSpace=wrap;html=1;" vertex="1" parent="WIyWlLk6GJQsqaUBKTNV-1">
          <mxGeometry x="325" y="160" width="110" height="70" as="geometry" />
        </mxCell>
        <mxCell id="1TUTb3aLRJBB_9T-nASP-18" value="是" style="text;html=1;align=center;verticalAlign=middle;resizable=0;points=[];autosize=1;strokeColor=none;fillColor=none;" vertex="1" parent="WIyWlLk6GJQsqaUBKTNV-1">
          <mxGeometry x="340" y="220" width="40" height="30" as="geometry" />
        </mxCell>
        <mxCell id="1TUTb3aLRJBB_9T-nASP-25" style="edgeStyle=orthogonalEdgeStyle;rounded=0;orthogonalLoop=1;jettySize=auto;html=1;entryX=0;entryY=0.5;entryDx=0;entryDy=0;" edge="1" parent="WIyWlLk6GJQsqaUBKTNV-1" source="1TUTb3aLRJBB_9T-nASP-23" target="1TUTb3aLRJBB_9T-nASP-4">
          <mxGeometry relative="1" as="geometry">
            <Array as="points">
              <mxPoint x="110" y="195" />
              <mxPoint x="110" y="770" />
            </Array>
          </mxGeometry>
        </mxCell>
        <mxCell id="1TUTb3aLRJBB_9T-nASP-23" value="删除对应内&lt;div&gt;部节点即可&lt;/div&gt;" style="whiteSpace=wrap;html=1;" vertex="1" parent="WIyWlLk6GJQsqaUBKTNV-1">
          <mxGeometry x="170" y="165" width="120" height="60" as="geometry" />
        </mxCell>
        <mxCell id="1TUTb3aLRJBB_9T-nASP-26" value="否" style="text;html=1;align=center;verticalAlign=middle;resizable=0;points=[];autosize=1;strokeColor=none;fillColor=none;" vertex="1" parent="WIyWlLk6GJQsqaUBKTNV-1">
          <mxGeometry x="290" y="168" width="40" height="30" as="geometry" />
        </mxCell>
      </root>
    </mxGraphModel>
  </diagram>
</mxfile>
